<svg width="255" height="27" viewBox="0 0 255 27" fill="none" xmlns="http://www.w3.org/2000/svg">
<path d="M44.5653 1.07169H39.7036V15.8438C39.7036 18.9726 40.6425 21.545 42.3701 23.3354C44.098 25.1261 46.6085 26.1281 49.7386 26.1281C52.8687 26.1281 55.3793 25.1261 57.1072 23.3354C58.8348 21.545 59.7736 18.9726 59.7736 15.8438V1.07169H54.9119V15.8438C54.9119 17.556 54.4475 18.91 53.5733 19.8357C52.6996 20.7609 51.4087 21.2664 49.7386 21.2664C48.0685 21.2664 46.7777 20.7609 45.904 19.8357C45.0297 18.91 44.5653 17.556 44.5653 15.8438V1.07169Z" fill="white"/>
<path d="M80.5915 1.07169H63.8873V25.6295H80.5915V20.8625H68.749V15.3676H79.0956V10.6006H68.749V5.83864H80.5915V1.07169Z" fill="white"/>
<path d="M90.4542 1.07169H84.5806V25.6295H89.4847L89.5183 10.7984L95.6969 25.6295H100.764L106.976 10.6958V25.6295H111.881V1.07169H106.007L98.2307 19.7851L90.4542 1.07169Z" fill="white"/>
<path fill-rule="evenodd" clip-rule="evenodd" d="M130.055 1.07169H124.304L114.594 25.6295H119.951L122.198 19.852C122.211 19.8566 122.226 19.8619 122.243 19.8678C122.311 19.8908 122.41 19.9235 122.538 19.9627C122.794 20.0412 123.164 20.1457 123.622 20.2501C124.538 20.459 125.805 20.6681 127.214 20.6681C128.622 20.6681 129.873 20.459 130.772 20.2501C131.221 20.1456 131.583 20.0411 131.832 19.9626C131.957 19.9233 132.054 19.8906 132.119 19.8676C132.135 19.8619 132.15 19.8569 132.162 19.8524L134.442 25.6295H139.834L130.055 1.07169ZM124.089 15.0655L124.084 15.0636L127.18 7.13367L130.309 15.0643L130.306 15.0658C130.269 15.0825 130.213 15.1064 130.141 15.1353C129.996 15.193 129.783 15.2702 129.509 15.3475C128.961 15.502 128.173 15.6568 127.214 15.6568C126.254 15.6568 125.458 15.502 124.901 15.3474C124.623 15.2701 124.405 15.1929 124.257 15.1351C124.183 15.1062 124.127 15.0822 124.089 15.0655Z" fill="white"/>
<path d="M158.877 1.07169H137.56V5.83864H145.788V25.6295H150.649V5.83864H158.877V1.07169Z" fill="white"/>
<path d="M166.98 1.07169H162.118V25.6295H166.98V15.3676H178.573V25.6295H183.435V1.07169H178.573V10.6006H166.98V1.07169Z" fill="white"/>
<path d="M30.4644 1.74124C27.9211 0.545332 25.0571 0.257589 22.3338 0.924458C19.6106 1.59132 17.1871 3.17388 15.4536 5.41683C13.7201 7.65977 12.7775 10.4325 12.7775 13.2883C12.7775 16.144 13.7201 18.9168 15.4536 21.1597C17.1871 23.4026 19.6106 24.9852 22.3339 25.6521C25.0571 26.3189 27.9211 26.0312 30.4644 24.8353C33.0076 23.6394 35.0818 21.6051 36.3529 19.0604L36.3802 19.0058L32.07 16.7657L32.0418 16.8221C31.2637 18.3798 29.9942 19.6248 28.4381 20.3565C26.882 21.0882 25.1298 21.2642 23.4638 20.8562C21.7978 20.4482 20.3147 19.48 19.2536 18.1071C18.1926 16.7342 17.6154 15.0368 17.6154 13.2883C17.6154 11.5397 18.1926 9.8423 19.2536 8.46942C20.3147 7.09657 21.7978 6.12828 23.4638 5.7203C25.1298 5.31232 26.882 5.48833 28.4381 6.22004C29.9942 6.95176 31.2637 8.19667 32.0418 9.75444L32.07 9.81082L36.3802 7.57072L36.3529 7.51612C35.0818 4.97145 33.0076 2.93714 30.4644 1.74124Z" fill="white"/>
<path d="M249.24 18.1026V0.750549H253.74V18.1026H249.24ZM248.664 23.3586C248.664 21.8465 249.924 20.5866 251.544 20.5866C253.056 20.5866 254.28 21.8465 254.28 23.3586C254.28 24.9786 253.056 26.2386 251.544 26.2386C249.924 26.2386 248.664 24.9786 248.664 23.3586Z" fill="#FFBA07"/>
<path d="M227.34 17.2386C227.34 12.0186 231.048 7.91455 236.484 7.91455C241.92 7.91455 245.592 12.0186 245.592 17.2386C245.592 22.4586 241.92 26.4906 236.484 26.4906C231.048 26.4906 227.34 22.4586 227.34 17.2386ZM231.84 17.2386C231.84 20.0826 233.784 22.1706 236.484 22.1706C239.148 22.1706 241.092 20.0826 241.092 17.2386C241.092 14.3946 239.148 12.2346 236.484 12.2346C233.784 12.2346 231.84 14.3946 231.84 17.2386Z" fill="#FFBA07"/>
<path d="M200.212 13.3866C200.212 5.93457 205.288 0.210571 213.064 0.210571C218.824 0.210571 223.036 3.55857 224.008 8.56257L219.724 10.0026C219.148 6.72657 216.664 4.53057 213.028 4.53057C207.916 4.53057 204.712 8.45457 204.712 13.2066C204.712 18.5346 208.096 22.1706 213.352 22.1706C216.196 22.1706 218.644 20.7666 219.868 18.4626H213.64V14.3586H224.476V25.9506H220.48V22.8546C218.86 24.9786 216.232 26.4906 212.452 26.4906C205.288 26.4906 200.212 20.9466 200.212 13.3866Z" fill="#FFBA07"/>
</svg>
